<?xml version="1.0" encoding="UTF-8" standalone="no"?>
<svg width="42px" height="72px" viewBox="0 0 42 72" version="1.1" xmlns="http://www.w3.org/2000/svg" xmlns:xlink="http://www.w3.org/1999/xlink" xmlns:sketch="http://www.bohemiancoding.com/sketch/ns">
    <!-- Generator: Sketch 3.3.2 (12043) - http://www.bohemiancoding.com/sketch -->
    <title>Shape Copy 9</title>
    <desc>Created with Sketch.</desc>
    <defs>
    	<mask id="logo_mask">
		    <path d="M7.98575179,55.3 C8.18575179,55.5 7.98575179,55.8 7.78575179,55.9 L7.78575179,55.9 C5.98575179,58.5 5.28575179,62.3 5.58575179,65.4 C5.78575179,67.6 7.68575179,73.2 10.9857518,71.4 C14.4857518,69.5 15.0857518,62.9 15.4857518,59.4 C15.4857518,59.1 15.8857518,58.8 16.1857518,58.9 C23.8857518,60.9 31.4857518,56.1 36.0857518,50.1 C40.4857518,44.3 42.6857518,36.8 41.4857518,29.6 C39.1857518,16.3 27.8857518,6.1 16.3857518,2.13162821e-14 C15.1857518,4.8 12.9857518,9.2 10.1857518,13.3 C7.08575179,17.8 3.48575179,22.2 1.48575179,27.4 C-2.21424821,37.4 1.38575179,47.5 7.98575179,55.3 L7.98575179,55.3 Z M5.78575179,47.7 C5.58575179,47.8 5.48575179,47.6 5.48575179,47.4 C5.68575179,46.9 6.08575179,46.6 6.48575179,46.3 C6.88575179,45.9 7.28575179,45.5 7.68575179,45.2 C7.88575179,45.1 8.08575179,45.3 7.98575179,45.5 C7.78575179,46 7.28575179,46.5 6.88575179,46.9 C6.58575179,47.1 6.18575179,47.5 5.78575179,47.7 L5.78575179,47.7 Z M7.78575179,41.3 C7.78575179,40.8 8.08575179,40.4 8.28575179,40 C8.48575179,39.5 8.68575179,39.1 8.98575179,38.6 C9.18575179,38.2 9.68575179,38.5 9.58575179,38.9 C9.38575179,39.4 9.28575179,39.9 8.98575179,40.3 C8.78575179,40.7 8.58575179,41.2 8.28575179,41.5 C8.08575179,41.7 7.78575179,41.6 7.78575179,41.3 L7.78575179,41.3 Z M7.48575179,49.2 C7.28575179,49.2 7.28575179,49 7.38575179,48.9 C8.18575179,48.2 9.28575179,47.8 9.98575179,47 C10.0857518,46.9 10.2857518,47 10.1857518,47.1 C9.68575179,48.2 8.78575179,49.2 7.48575179,49.2 L7.48575179,49.2 Z M10.3857518,51.9 C9.88575179,52.2 9.48575179,52.5 8.98575179,52.6 C8.78575179,52.7 8.58575179,52.3 8.78575179,52.2 C9.28575179,51.9 9.68575179,51.6 10.0857518,51.3 C10.4857518,51 10.8857518,50.6 11.3857518,50.4 C11.5857518,50.3 11.7857518,50.6 11.6857518,50.8 C11.2857518,51.2 10.7857518,51.6 10.3857518,51.9 L10.3857518,51.9 Z M11.8857518,41 C11.9857518,40.9 12.3857518,41 12.1857518,41.2 C11.7857518,41.9 11.2857518,42.8 10.6857518,43.4 C10.4857518,43.6 10.1857518,43.3 10.2857518,43.1 C10.5857518,42.3 11.2857518,41.6 11.8857518,41 L11.8857518,41 Z M10.7857518,33.5 C10.7857518,32.9 10.7857518,32.3 10.9857518,31.7 C11.0857518,31.4 11.4857518,31.5 11.4857518,31.8 C11.5857518,32.5 11.4857518,33.2 11.4857518,33.8 C11.3857518,34.4 11.3857518,35 10.9857518,35.4 C10.8857518,35.5 10.6857518,35.5 10.6857518,35.3 C10.5857518,34.8 10.7857518,34.1 10.7857518,33.5 L10.7857518,33.5 Z M11.3857518,55.1 C11.1857518,55.2 10.8857518,54.8 11.1857518,54.7 C11.6857518,54.4 12.2857518,54.1 12.7857518,53.7 C13.2857518,53.3 13.6857518,52.9 14.1857518,52.6 C14.2857518,52.5 14.4857518,52.6 14.3857518,52.8 C13.8857518,53.8 12.5857518,54.8 11.3857518,55.1 L11.3857518,55.1 Z M19.4857518,21.6 C19.2857518,21.4 19.5857518,21 19.7857518,21.2 C20.8857518,22 22.0857518,23.1 22.5857518,24.3 C22.6857518,24.6 22.3857518,24.8 22.1857518,24.6 C21.2857518,23.7 20.3857518,22.6 19.4857518,21.6 L19.4857518,21.6 Z M22.1857518,40.4 C21.5857518,41.6 20.7857518,43 19.6857518,43.7 C19.4857518,43.8 19.2857518,43.6 19.3857518,43.5 C19.8857518,42.3 20.9857518,41.2 21.7857518,40.2 C21.8857518,40 22.2857518,40.2 22.1857518,40.4 L22.1857518,40.4 Z M19.3857518,32.9 C19.2857518,33 19.0857518,33.1 19.0857518,32.9 C18.9857518,32.3 19.0857518,31.7 19.0857518,31 C19.0857518,30.4 18.9857518,29.8 18.8857518,29.2 C18.7857518,28.9 19.2857518,28.8 19.3857518,29.1 C19.7857518,30.2 19.9857518,31.9 19.3857518,32.9 L19.3857518,32.9 Z M19.0857518,36.3 C18.8857518,37.4 18.2857518,38.7 17.4857518,39.6 C17.3857518,39.7 17.1857518,39.6 17.1857518,39.5 C17.3857518,38.4 17.8857518,37 18.5857518,36.1 C18.8857518,35.9 19.1857518,36 19.0857518,36.3 L19.0857518,36.3 Z M17.3857518,26.4 C17.0857518,25.9 16.7857518,25.3 16.3857518,24.8 C16.0857518,24.4 15.6857518,24 15.2857518,23.5 C15.0857518,23.3 15.3857518,23.1 15.5857518,23.2 C16.5857518,23.8 17.6857518,25 17.6857518,26.3 C17.6857518,26.5 17.3857518,26.5 17.3857518,26.4 L17.3857518,26.4 Z M16.0857518,46.2 C15.3857518,47 14.4857518,47.9 13.3857518,48 C13.1857518,48 13.0857518,47.8 13.2857518,47.7 C14.0857518,47 14.9857518,46.6 15.7857518,45.9 C15.9857518,45.6 16.2857518,45.9 16.0857518,46.2 L16.0857518,46.2 Z M15.3857518,28.9 C15.5857518,29.4 15.7857518,30.1 15.6857518,30.6 C15.6857518,30.9 15.2857518,30.9 15.1857518,30.7 C14.7857518,29.8 14.7857518,28.7 14.1857518,27.9 C14.0857518,27.7 14.2857518,27.5 14.4857518,27.7 C14.8857518,28 15.1857518,28.3 15.3857518,28.9 L15.3857518,28.9 Z M14.9857518,34 C15.0857518,33.8 15.3857518,34 15.3857518,34.2 C15.1857518,35.4 14.7857518,36.7 13.9857518,37.6 C13.8857518,37.7 13.6857518,37.6 13.6857518,37.5 C13.8857518,36.3 14.2857518,35 14.9857518,34 L14.9857518,34 Z M15.4857518,42.2 C15.5857518,42.1 15.6857518,42.3 15.5857518,42.4 C15.1857518,42.9 14.7857518,43.4 14.2857518,43.9 C13.8857518,44.4 13.4857518,44.9 12.9857518,45.3 C12.7857518,45.5 12.4857518,45.2 12.5857518,45 C13.3857518,43.9 14.4857518,42.8 15.4857518,42.2 L15.4857518,42.2 Z M15.1857518,56.3 C14.6857518,56.8 13.8857518,57 13.1857518,57 C12.9857518,57 12.9857518,56.8 13.0857518,56.7 C13.6857518,56.5 14.2857518,56.1 14.9857518,55.9 C15.1857518,55.9 15.3857518,56.1 15.1857518,56.3 L15.1857518,56.3 Z M15.0857518,49.7 C14.7857518,49.7 14.7857518,49.3 15.0857518,49.3 C15.6857518,49.2 16.1857518,49 16.7857518,48.7 C17.2857518,48.5 17.6857518,48.1 18.1857518,47.9 C18.3857518,47.8 18.5857518,48.1 18.4857518,48.3 C17.5857518,49.2 16.2857518,49.8 15.0857518,49.7 L15.0857518,49.7 Z M16.4857518,52.5 C16.2857518,52.5 16.2857518,52.2 16.3857518,52.1 C16.8857518,51.7 17.6857518,51.7 18.2857518,51.5 C18.9857518,51.3 19.5857518,51.1 20.1857518,50.6 C20.3857518,50.5 20.5857518,50.7 20.3857518,50.9 C19.8857518,51.4 19.2857518,51.9 18.5857518,52.2 C17.9857518,52.5 17.1857518,52.7 16.4857518,52.5 L16.4857518,52.5 Z M21.0857518,56.6 C20.6857518,57.1 20.0857518,57.1 19.4857518,57.3 C18.9857518,57.4 18.3857518,57.6 17.8857518,57.5 C17.6857518,57.5 17.5857518,57.3 17.7857518,57.1 C18.0857518,56.7 18.7857518,56.6 19.2857518,56.5 C19.8857518,56.4 20.4857518,56.2 21.0857518,56.3 C21.0857518,56.3 21.1857518,56.4 21.0857518,56.6 L21.0857518,56.6 Z M22.0857518,53.1 C21.4857518,53.8 20.0857518,54.1 19.1857518,54 C18.7857518,54 18.8857518,53.5 19.1857518,53.4 C19.6857518,53.3 20.1857518,53.2 20.6857518,53.1 C21.0857518,53 21.4857518,52.8 21.8857518,52.8 C22.0857518,52.7 22.1857518,53 22.0857518,53.1 L22.0857518,53.1 Z M21.9857518,47.7 C21.7857518,47.8 21.4857518,47.6 21.6857518,47.4 C22.2857518,46.3 23.0857518,45.1 23.9857518,44.4 C24.2857518,44.2 24.4857518,44.5 24.3857518,44.8 C23.6857518,45.8 22.8857518,46.9 21.9857518,47.7 L21.9857518,47.7 Z M28.0857518,26.7 C27.5857518,26.2 27.2857518,25.5 26.8857518,24.9 C26.4857518,24.4 25.9857518,23.9 25.5857518,23.3 C25.3857518,23 25.7857518,22.7 26.0857518,22.9 C27.0857518,23.7 28.4857518,25.2 28.4857518,26.5 C28.4857518,26.8 28.1857518,26.9 28.0857518,26.7 L28.0857518,26.7 Z M28.1857518,36.8 C28.1857518,38.3 27.7857518,40.1 26.8857518,41.3 C26.7857518,41.4 26.5857518,41.3 26.5857518,41.2 C26.7857518,40.4 27.0857518,39.7 27.2857518,38.9 C27.4857518,38.2 27.5857518,37.5 27.6857518,36.8 C27.7857518,36.5 28.1857518,36.5 28.1857518,36.8 L28.1857518,36.8 Z M25.5857518,48.2 C25.9857518,47.6 26.3857518,47 26.6857518,46.3 C26.8857518,46 27.2857518,46.2 27.1857518,46.5 C26.6857518,47.8 25.8857518,49.4 24.5857518,50 C24.3857518,50.1 24.1857518,49.8 24.2857518,49.6 C24.6857518,49.2 25.1857518,48.8 25.5857518,48.2 L25.5857518,48.2 Z M23.3857518,38.5 C23.5857518,37.2 24.0857518,35.7 24.6857518,34.6 C24.7857518,34.4 25.0857518,34.5 25.0857518,34.7 C24.9857518,36 24.4857518,37.6 23.6857518,38.7 C23.5857518,38.7 23.3857518,38.6 23.3857518,38.5 L23.3857518,38.5 Z M28.1857518,54.1 C27.3857518,54.7 26.5857518,55.2 25.7857518,55.7 C25.1857518,56 24.5857518,56.4 23.8857518,56.4 C23.7857518,56.4 23.6857518,56.2 23.7857518,56.1 C24.2857518,55.5 25.1857518,55.3 25.7857518,54.9 C26.4857518,54.5 27.1857518,54.1 27.9857518,53.8 C28.2857518,53.7 28.3857518,54 28.1857518,54.1 L28.1857518,54.1 Z M27.3857518,50.6 C26.8857518,51.1 26.3857518,51.7 25.6857518,51.9 C25.4857518,52 25.2857518,51.7 25.3857518,51.5 C25.7857518,50.9 26.4857518,50.5 26.9857518,49.9 C27.3857518,49.5 27.6857518,48.9 28.1857518,48.6 C28.2857518,48.5 28.4857518,48.6 28.4857518,48.8 C28.2857518,49.5 27.7857518,50.1 27.3857518,50.6 L27.3857518,50.6 Z M34.9857518,46.9 C34.5857518,47.9 33.7857518,48.8 32.9857518,49.6 C32.2857518,50.3 31.6857518,51 30.7857518,51.4 C30.4857518,51.5 30.3857518,51.2 30.4857518,51 C31.0857518,50.2 31.9857518,49.6 32.6857518,48.9 C33.3857518,48.2 33.9857518,47.4 34.5857518,46.7 C34.7857518,46.6 35.0857518,46.7 34.9857518,46.9 L34.9857518,46.9 Z M32.0857518,27.9 C31.5857518,27.4 31.3857518,26.7 30.9857518,26.1 C30.6857518,25.6 30.3857518,25.1 30.1857518,24.5 C30.0857518,24.3 30.3857518,24 30.5857518,24.2 C31.1857518,24.7 31.4857518,25.4 31.8857518,26 C32.1857518,26.6 32.4857518,27.1 32.4857518,27.8 C32.3857518,27.9 32.1857518,28 32.0857518,27.9 L32.0857518,27.9 Z M32.3857518,33.1 C32.3857518,33.6 32.4857518,34.3 32.1857518,34.8 C32.0857518,35 31.7857518,35 31.6857518,34.8 C31.4857518,34.3 31.5857518,33.6 31.4857518,33 C31.3857518,32.4 31.3857518,31.8 31.4857518,31.2 C31.4857518,31 31.8857518,30.9 31.9857518,31.2 C32.2857518,31.8 32.3857518,32.5 32.3857518,33.1 L32.3857518,33.1 Z M31.2857518,45.9 C31.5857518,45.3 31.8857518,44.8 32.1857518,44.2 C32.3857518,43.6 32.5857518,43 32.8857518,42.5 C32.9857518,42.3 33.2857518,42.4 33.2857518,42.6 C33.1857518,43.8 32.6857518,45.4 31.6857518,46.2 C31.4857518,46.3 31.1857518,46.1 31.2857518,45.9 L31.2857518,45.9 Z M36.5857518,43.5 C36.4857518,43.8 35.9857518,43.7 36.0857518,43.3 C36.4857518,41.4 36.9857518,39.1 37.8857518,37.4 C38.0857518,37.1 38.4857518,37.2 38.3857518,37.6 C38.1857518,39.6 37.4857518,41.8 36.5857518,43.5 L36.5857518,43.5 Z M38.4857518,29.4 C38.8857518,30.2 38.8857518,31.1 38.9857518,32 C38.9857518,32.7 39.0857518,33.5 38.7857518,34.2 C38.6857518,34.4 38.3857518,34.4 38.3857518,34.2 C38.1857518,33.4 38.2857518,32.6 38.1857518,31.8 C38.1857518,31 37.9857518,30.2 38.0857518,29.4 C38.0857518,29.2 38.3857518,29.2 38.4857518,29.4 L38.4857518,29.4 Z M35.5857518,20.7 C36.3857518,21.4 36.8857518,22.4 37.2857518,23.3 C37.6857518,24.2 38.1857518,25.3 37.8857518,26.2 C37.7857518,26.4 37.5857518,26.4 37.4857518,26.2 C36.8857518,25.5 36.6857518,24.2 36.2857518,23.4 C35.8857518,22.6 35.4857518,21.8 35.2857518,20.9 C35.2857518,20.7 35.4857518,20.6 35.5857518,20.7 L35.5857518,20.7 Z M34.5857518,26.4 C34.9857518,27.1 35.2857518,27.9 35.3857518,28.6 C35.4857518,29.2 35.6857518,30.1 35.2857518,30.6 C35.1857518,30.7 34.9857518,30.7 34.8857518,30.6 C34.5857518,30.1 34.6857518,29.3 34.4857518,28.7 C34.2857518,28 33.9857518,27.3 33.8857518,26.6 C33.8857518,26.3 34.3857518,26.1 34.5857518,26.4 L34.5857518,26.4 Z M33.9857518,36.5 C34.0857518,35.8 34.0857518,35.1 34.3857518,34.4 C34.4857518,34.1 34.8857518,34.2 34.9857518,34.4 C35.1857518,35.1 35.0857518,35.9 34.9857518,36.6 C34.8857518,37.4 34.7857518,38.3 34.3857518,39 C34.2857518,39.2 33.9857518,39.2 33.8857518,38.9 C33.6857518,38.1 33.8857518,37.3 33.9857518,36.5 L33.9857518,36.5 Z M33.1857518,23.4 C32.4857518,23 32.1857518,22.3 31.7857518,21.7 C31.3857518,21.1 30.7857518,20.5 30.2857518,19.9 C30.0857518,19.7 30.3857518,19.3 30.6857518,19.4 C31.4857518,19.8 31.9857518,20.5 32.4857518,21.2 C32.8857518,21.8 33.4857518,22.5 33.4857518,23.3 C33.4857518,23.3 33.3857518,23.4 33.1857518,23.4 L33.1857518,23.4 Z M29.9857518,13.5 C30.8857518,13.6 31.5857518,14.4 32.0857518,15.2 C32.5857518,16 33.2857518,16.8 33.4857518,17.7 C33.5857518,18 33.2857518,18.2 32.9857518,18 C32.2857518,17.5 31.9857518,16.6 31.5857518,15.9 C31.0857518,15.1 30.3857518,14.5 29.8857518,13.7 C29.7857518,13.7 29.7857518,13.5 29.9857518,13.5 L29.9857518,13.5 Z M30.7857518,39.5 C30.9857518,39.3 31.2857518,39.5 31.1857518,39.7 C31.0857518,40.5 30.8857518,41.3 30.6857518,42 C30.4857518,42.6 30.3857518,43.1 29.9857518,43.6 C29.8857518,43.7 29.6857518,43.6 29.6857518,43.5 C29.8857518,42.2 29.9857518,40.5 30.7857518,39.5 L30.7857518,39.5 Z M29.2857518,31.1 C29.3857518,31.7 29.4857518,32.4 29.2857518,33 C29.1857518,33.2 28.8857518,33.3 28.8857518,33 C28.6857518,32.4 28.6857518,31.8 28.5857518,31.1 C28.4857518,30.5 28.2857518,29.9 28.2857518,29.3 C28.2857518,29 28.6857518,28.9 28.7857518,29.2 C29.0857518,29.9 29.1857518,30.5 29.2857518,31.1 L29.2857518,31.1 Z M28.4857518,21.1 C27.9857518,20.9 27.6857518,20.5 27.3857518,20 C26.8857518,19.4 26.3857518,18.9 25.8857518,18.4 C25.6857518,18.2 25.8857518,17.8 26.1857518,17.9 C26.7857518,18.2 27.2857518,18.7 27.7857518,19.2 C28.1857518,19.7 28.7857518,20.2 28.7857518,20.8 C28.6857518,20.9 28.5857518,21.1 28.4857518,21.1 L28.4857518,21.1 Z M28.0857518,16.1 C27.4857518,15.8 26.9857518,15.2 26.5857518,14.7 C26.0857518,14.2 25.5857518,13.8 25.1857518,13.2 C24.9857518,13 25.2857518,12.6 25.5857518,12.8 C26.2857518,13.2 26.8857518,13.8 27.3857518,14.3 C27.7857518,14.8 28.2857518,15.2 28.5857518,15.8 C28.4857518,15.9 28.2857518,16.2 28.0857518,16.1 L28.0857518,16.1 Z M24.5857518,7.4 C25.2857518,7.9 25.7857518,8.5 26.4857518,9.1 C27.0857518,9.6 27.7857518,10 28.0857518,10.7 C28.1857518,10.9 27.9857518,11.3 27.6857518,11.2 C26.8857518,10.8 26.1857518,10 25.4857518,9.4 C24.9857518,8.9 24.3857518,8.4 24.1857518,7.7 C24.1857518,7.4 24.4857518,7.2 24.5857518,7.4 L24.5857518,7.4 Z M24.1857518,27.5 C24.6857518,28.6 25.2857518,30.3 24.9857518,31.5 C24.8857518,31.7 24.5857518,31.8 24.5857518,31.5 C24.3857518,30.9 24.3857518,30.3 24.2857518,29.7 C24.1857518,29 23.8857518,28.3 23.6857518,27.7 C23.5857518,27.3 24.0857518,27.1 24.1857518,27.5 L24.1857518,27.5 Z M23.5857518,20 C23.5857518,20.1 23.4857518,20.3 23.3857518,20.3 C22.7857518,20.2 22.2857518,19.6 21.8857518,19.1 C21.3857518,18.5 20.9857518,18 20.5857518,17.3 C20.4857518,17.1 20.6857518,16.8 20.8857518,17 C21.3857518,17.5 21.7857518,18 22.1857518,18.5 C22.6857518,18.9 23.2857518,19.4 23.5857518,20 L23.5857518,20 Z M21.6857518,13.6 C21.1857518,13.1 20.8857518,12.4 20.4857518,11.9 C19.9857518,11.3 19.3857518,10.6 18.7857518,10.1 C18.5857518,9.9 18.7857518,9.7 18.9857518,9.8 C20.1857518,10.7 21.7857518,11.8 22.0857518,13.4 C22.1857518,13.6 21.8857518,13.8 21.6857518,13.6 L21.6857518,13.6 Z M18.2857518,2.5 C18.9857518,2.7 19.5857518,3.1 20.1857518,3.5 C20.7857518,4 21.5857518,4.4 21.9857518,5.1 C22.0857518,5.3 21.8857518,5.5 21.6857518,5.5 C20.8857518,5.3 20.2857518,4.6 19.6857518,4.1 C19.1857518,3.7 18.5857518,3.3 18.0857518,2.8 C18.0857518,2.6 18.1857518,2.4 18.2857518,2.5 L18.2857518,2.5 Z M18.3857518,5.8 C19.5857518,6.1 20.9857518,7.1 21.5857518,8.3 C21.6857518,8.6 21.3857518,8.9 21.0857518,8.8 C20.4857518,8.5 20.1857518,8 19.6857518,7.6 C19.1857518,7.2 18.6857518,6.9 18.1857518,6.5 C17.7857518,6.2 17.9857518,5.8 18.3857518,5.8 L18.3857518,5.8 Z M16.5857518,12.3 C17.4857518,13 18.6857518,13.7 19.2857518,14.7 C19.3857518,14.9 19.1857518,15.2 18.9857518,15.1 C17.9857518,14.5 16.9857518,13.5 16.2857518,12.7 C15.9857518,12.4 16.3857518,12.2 16.5857518,12.3 L16.5857518,12.3 Z M13.7857518,15.2 C14.9857518,16 16.2857518,17.1 17.1857518,18.3 C17.3857518,18.6 17.0857518,18.8 16.7857518,18.7 C16.0857518,18.2 15.4857518,17.6 14.8857518,17 C14.3857518,16.5 13.8857518,16.1 13.4857518,15.6 C13.1857518,15.3 13.5857518,15 13.7857518,15.2 L13.7857518,15.2 Z M11.6857518,18.3 C12.5857518,18.6 13.5857518,19.4 13.7857518,20.4 C13.7857518,20.5 13.6857518,20.7 13.4857518,20.6 C12.7857518,20 12.1857518,19.3 11.3857518,18.8 C11.1857518,18.6 11.3857518,18.2 11.6857518,18.3 L11.6857518,18.3 Z M9.18575179,21.3 C10.5857518,22 11.9857518,23.4 12.5857518,24.9 C12.6857518,25.1 12.3857518,25.3 12.2857518,25.1 C11.6857518,24.5 11.1857518,23.9 10.6857518,23.3 C10.0857518,22.7 9.48575179,22.2 8.98575179,21.7 C8.78575179,21.5 8.88575179,21.2 9.18575179,21.3 L9.18575179,21.3 Z M7.68575179,25 C8.38575179,25.1 8.98575179,25.7 9.48575179,26.2 C9.98575179,26.7 10.4857518,27.3 10.7857518,28 C10.8857518,28.2 10.5857518,28.5 10.3857518,28.3 C9.88575179,27.8 9.38575179,27.2 8.88575179,26.6 C8.48575179,26.2 7.88575179,25.8 7.58575179,25.4 C7.38575179,25.1 7.48575179,24.9 7.68575179,25 L7.68575179,25 Z M6.78575179,29.2 C7.58575179,29.4 7.98575179,30.2 8.28575179,31 C8.48575179,31.8 8.68575179,32.7 8.58575179,33.5 C8.48575179,33.8 8.18575179,33.8 8.08575179,33.6 C7.78575179,32.9 7.78575179,32.2 7.58575179,31.5 C7.38575179,30.8 6.98575179,30.3 6.58575179,29.7 C6.38575179,29.4 6.58575179,29.1 6.78575179,29.2 L6.78575179,29.2 Z M5.48575179,38 C5.68575179,37.4 5.78575179,36.7 6.08575179,36.2 C6.18575179,35.9 6.58575179,36 6.58575179,36.3 C6.68575179,36.9 6.48575179,37.6 6.28575179,38.2 C6.08575179,38.8 5.88575179,39.6 5.48575179,40.2 C5.38575179,40.4 5.08575179,40.3 5.08575179,40.1 C4.98575179,39.3 5.28575179,38.6 5.48575179,38 L5.48575179,38 Z M5.08575179,42.7 C4.68575179,43.3 4.28575179,44.1 3.58575179,44.3 C3.38575179,44.4 3.28575179,44.2 3.38575179,44 C3.78575179,43.4 4.38575179,43 4.88575179,42.5 C4.98575179,42.4 5.18575179,42.6 5.08575179,42.7 L5.08575179,42.7 Z M3.38575179,30.5 C4.18575179,31.6 4.58575179,33.6 4.08575179,34.9 C3.98575179,35.1 3.68575179,35.1 3.68575179,34.8 C3.58575179,34 3.58575179,33.3 3.48575179,32.5 C3.38575179,31.9 3.18575179,31.2 3.08575179,30.6 C3.08575179,30.5 3.28575179,30.4 3.38575179,30.5 L3.38575179,30.5 Z M2.58575179,38.3 C2.68575179,37.9 2.88575179,37.5 3.08575179,37.1 C3.18575179,36.9 3.48575179,37 3.38575179,37.2 C3.38575179,37.9 3.38575179,39.3 2.48575179,39.6 C2.38575179,39.6 2.18575179,39.6 2.18575179,39.4 C2.18575179,39 2.48575179,38.7 2.58575179,38.3 L2.58575179,38.3 Z" id="Shape-Copy-9" fill="#FFFFFF" sketch:type="MSShapeGroup"></path>
    	</mask>
    </defs>
    <g>
        <path d="M7.98575179,55.3 C8.18575179,55.5 7.98575179,55.8 7.78575179,55.9 L7.78575179,55.9 C5.98575179,58.5 5.28575179,62.3 5.58575179,65.4 C5.78575179,67.6 7.68575179,73.2 10.9857518,71.4 C14.4857518,69.5 15.0857518,62.9 15.4857518,59.4 C15.4857518,59.1 15.8857518,58.8 16.1857518,58.9 C23.8857518,60.9 31.4857518,56.1 36.0857518,50.1 C40.4857518,44.3 42.6857518,36.8 41.4857518,29.6 C39.1857518,16.3 27.8857518,6.1 16.3857518,2.13162821e-14 C15.1857518,4.8 12.9857518,9.2 10.1857518,13.3 C7.08575179,17.8 3.48575179,22.2 1.48575179,27.4 C-2.21424821,37.4 1.38575179,47.5 7.98575179,55.3 L7.98575179,55.3 Z M5.78575179,47.7 C5.58575179,47.8 5.48575179,47.6 5.48575179,47.4 C5.68575179,46.9 6.08575179,46.6 6.48575179,46.3 C6.88575179,45.9 7.28575179,45.5 7.68575179,45.2 C7.88575179,45.1 8.08575179,45.3 7.98575179,45.5 C7.78575179,46 7.28575179,46.5 6.88575179,46.9 C6.58575179,47.1 6.18575179,47.5 5.78575179,47.7 L5.78575179,47.7 Z M7.78575179,41.3 C7.78575179,40.8 8.08575179,40.4 8.28575179,40 C8.48575179,39.5 8.68575179,39.1 8.98575179,38.6 C9.18575179,38.2 9.68575179,38.5 9.58575179,38.9 C9.38575179,39.4 9.28575179,39.9 8.98575179,40.3 C8.78575179,40.7 8.58575179,41.2 8.28575179,41.5 C8.08575179,41.7 7.78575179,41.6 7.78575179,41.3 L7.78575179,41.3 Z M7.48575179,49.2 C7.28575179,49.2 7.28575179,49 7.38575179,48.9 C8.18575179,48.2 9.28575179,47.8 9.98575179,47 C10.0857518,46.9 10.2857518,47 10.1857518,47.1 C9.68575179,48.2 8.78575179,49.2 7.48575179,49.2 L7.48575179,49.2 Z M10.3857518,51.9 C9.88575179,52.2 9.48575179,52.5 8.98575179,52.6 C8.78575179,52.7 8.58575179,52.3 8.78575179,52.2 C9.28575179,51.9 9.68575179,51.6 10.0857518,51.3 C10.4857518,51 10.8857518,50.6 11.3857518,50.4 C11.5857518,50.3 11.7857518,50.6 11.6857518,50.8 C11.2857518,51.2 10.7857518,51.6 10.3857518,51.9 L10.3857518,51.9 Z M11.8857518,41 C11.9857518,40.9 12.3857518,41 12.1857518,41.2 C11.7857518,41.9 11.2857518,42.8 10.6857518,43.4 C10.4857518,43.6 10.1857518,43.3 10.2857518,43.1 C10.5857518,42.3 11.2857518,41.6 11.8857518,41 L11.8857518,41 Z M10.7857518,33.5 C10.7857518,32.9 10.7857518,32.3 10.9857518,31.7 C11.0857518,31.4 11.4857518,31.5 11.4857518,31.8 C11.5857518,32.5 11.4857518,33.2 11.4857518,33.8 C11.3857518,34.4 11.3857518,35 10.9857518,35.4 C10.8857518,35.5 10.6857518,35.5 10.6857518,35.3 C10.5857518,34.8 10.7857518,34.1 10.7857518,33.5 L10.7857518,33.5 Z M11.3857518,55.1 C11.1857518,55.2 10.8857518,54.8 11.1857518,54.7 C11.6857518,54.4 12.2857518,54.1 12.7857518,53.7 C13.2857518,53.3 13.6857518,52.9 14.1857518,52.6 C14.2857518,52.5 14.4857518,52.6 14.3857518,52.8 C13.8857518,53.8 12.5857518,54.8 11.3857518,55.1 L11.3857518,55.1 Z M19.4857518,21.6 C19.2857518,21.4 19.5857518,21 19.7857518,21.2 C20.8857518,22 22.0857518,23.1 22.5857518,24.3 C22.6857518,24.6 22.3857518,24.8 22.1857518,24.6 C21.2857518,23.7 20.3857518,22.6 19.4857518,21.6 L19.4857518,21.6 Z M22.1857518,40.4 C21.5857518,41.6 20.7857518,43 19.6857518,43.7 C19.4857518,43.8 19.2857518,43.6 19.3857518,43.5 C19.8857518,42.3 20.9857518,41.2 21.7857518,40.2 C21.8857518,40 22.2857518,40.2 22.1857518,40.4 L22.1857518,40.4 Z M19.3857518,32.9 C19.2857518,33 19.0857518,33.1 19.0857518,32.9 C18.9857518,32.3 19.0857518,31.7 19.0857518,31 C19.0857518,30.4 18.9857518,29.8 18.8857518,29.2 C18.7857518,28.9 19.2857518,28.8 19.3857518,29.1 C19.7857518,30.2 19.9857518,31.9 19.3857518,32.9 L19.3857518,32.9 Z M19.0857518,36.3 C18.8857518,37.4 18.2857518,38.7 17.4857518,39.6 C17.3857518,39.7 17.1857518,39.6 17.1857518,39.5 C17.3857518,38.4 17.8857518,37 18.5857518,36.1 C18.8857518,35.9 19.1857518,36 19.0857518,36.3 L19.0857518,36.3 Z M17.3857518,26.4 C17.0857518,25.9 16.7857518,25.3 16.3857518,24.8 C16.0857518,24.4 15.6857518,24 15.2857518,23.5 C15.0857518,23.3 15.3857518,23.1 15.5857518,23.2 C16.5857518,23.8 17.6857518,25 17.6857518,26.3 C17.6857518,26.5 17.3857518,26.5 17.3857518,26.4 L17.3857518,26.4 Z M16.0857518,46.2 C15.3857518,47 14.4857518,47.9 13.3857518,48 C13.1857518,48 13.0857518,47.8 13.2857518,47.7 C14.0857518,47 14.9857518,46.6 15.7857518,45.9 C15.9857518,45.6 16.2857518,45.9 16.0857518,46.2 L16.0857518,46.2 Z M15.3857518,28.9 C15.5857518,29.4 15.7857518,30.1 15.6857518,30.6 C15.6857518,30.9 15.2857518,30.9 15.1857518,30.7 C14.7857518,29.8 14.7857518,28.7 14.1857518,27.9 C14.0857518,27.7 14.2857518,27.5 14.4857518,27.7 C14.8857518,28 15.1857518,28.3 15.3857518,28.9 L15.3857518,28.9 Z M14.9857518,34 C15.0857518,33.8 15.3857518,34 15.3857518,34.2 C15.1857518,35.4 14.7857518,36.7 13.9857518,37.6 C13.8857518,37.7 13.6857518,37.6 13.6857518,37.5 C13.8857518,36.3 14.2857518,35 14.9857518,34 L14.9857518,34 Z M15.4857518,42.2 C15.5857518,42.1 15.6857518,42.3 15.5857518,42.4 C15.1857518,42.9 14.7857518,43.4 14.2857518,43.9 C13.8857518,44.4 13.4857518,44.9 12.9857518,45.3 C12.7857518,45.5 12.4857518,45.2 12.5857518,45 C13.3857518,43.9 14.4857518,42.8 15.4857518,42.2 L15.4857518,42.2 Z M15.1857518,56.3 C14.6857518,56.8 13.8857518,57 13.1857518,57 C12.9857518,57 12.9857518,56.8 13.0857518,56.7 C13.6857518,56.5 14.2857518,56.1 14.9857518,55.9 C15.1857518,55.9 15.3857518,56.1 15.1857518,56.3 L15.1857518,56.3 Z M15.0857518,49.7 C14.7857518,49.7 14.7857518,49.3 15.0857518,49.3 C15.6857518,49.2 16.1857518,49 16.7857518,48.7 C17.2857518,48.5 17.6857518,48.1 18.1857518,47.9 C18.3857518,47.8 18.5857518,48.1 18.4857518,48.3 C17.5857518,49.2 16.2857518,49.8 15.0857518,49.7 L15.0857518,49.7 Z M16.4857518,52.5 C16.2857518,52.5 16.2857518,52.2 16.3857518,52.1 C16.8857518,51.7 17.6857518,51.7 18.2857518,51.5 C18.9857518,51.3 19.5857518,51.1 20.1857518,50.6 C20.3857518,50.5 20.5857518,50.7 20.3857518,50.9 C19.8857518,51.4 19.2857518,51.9 18.5857518,52.2 C17.9857518,52.5 17.1857518,52.7 16.4857518,52.5 L16.4857518,52.5 Z M21.0857518,56.6 C20.6857518,57.1 20.0857518,57.1 19.4857518,57.3 C18.9857518,57.4 18.3857518,57.6 17.8857518,57.5 C17.6857518,57.5 17.5857518,57.3 17.7857518,57.1 C18.0857518,56.7 18.7857518,56.6 19.2857518,56.5 C19.8857518,56.4 20.4857518,56.2 21.0857518,56.3 C21.0857518,56.3 21.1857518,56.4 21.0857518,56.6 L21.0857518,56.6 Z M22.0857518,53.1 C21.4857518,53.8 20.0857518,54.1 19.1857518,54 C18.7857518,54 18.8857518,53.5 19.1857518,53.4 C19.6857518,53.3 20.1857518,53.2 20.6857518,53.1 C21.0857518,53 21.4857518,52.8 21.8857518,52.8 C22.0857518,52.7 22.1857518,53 22.0857518,53.1 L22.0857518,53.1 Z M21.9857518,47.7 C21.7857518,47.8 21.4857518,47.6 21.6857518,47.4 C22.2857518,46.3 23.0857518,45.1 23.9857518,44.4 C24.2857518,44.2 24.4857518,44.5 24.3857518,44.8 C23.6857518,45.8 22.8857518,46.9 21.9857518,47.7 L21.9857518,47.7 Z M28.0857518,26.7 C27.5857518,26.2 27.2857518,25.5 26.8857518,24.9 C26.4857518,24.4 25.9857518,23.9 25.5857518,23.3 C25.3857518,23 25.7857518,22.7 26.0857518,22.9 C27.0857518,23.7 28.4857518,25.2 28.4857518,26.5 C28.4857518,26.8 28.1857518,26.9 28.0857518,26.7 L28.0857518,26.7 Z M28.1857518,36.8 C28.1857518,38.3 27.7857518,40.1 26.8857518,41.3 C26.7857518,41.4 26.5857518,41.3 26.5857518,41.2 C26.7857518,40.4 27.0857518,39.7 27.2857518,38.9 C27.4857518,38.2 27.5857518,37.5 27.6857518,36.8 C27.7857518,36.5 28.1857518,36.5 28.1857518,36.8 L28.1857518,36.8 Z M25.5857518,48.2 C25.9857518,47.6 26.3857518,47 26.6857518,46.3 C26.8857518,46 27.2857518,46.2 27.1857518,46.5 C26.6857518,47.8 25.8857518,49.4 24.5857518,50 C24.3857518,50.1 24.1857518,49.8 24.2857518,49.6 C24.6857518,49.2 25.1857518,48.8 25.5857518,48.2 L25.5857518,48.2 Z M23.3857518,38.5 C23.5857518,37.2 24.0857518,35.7 24.6857518,34.6 C24.7857518,34.4 25.0857518,34.5 25.0857518,34.7 C24.9857518,36 24.4857518,37.6 23.6857518,38.7 C23.5857518,38.7 23.3857518,38.6 23.3857518,38.5 L23.3857518,38.5 Z M28.1857518,54.1 C27.3857518,54.7 26.5857518,55.2 25.7857518,55.7 C25.1857518,56 24.5857518,56.4 23.8857518,56.4 C23.7857518,56.4 23.6857518,56.2 23.7857518,56.1 C24.2857518,55.5 25.1857518,55.3 25.7857518,54.9 C26.4857518,54.5 27.1857518,54.1 27.9857518,53.8 C28.2857518,53.7 28.3857518,54 28.1857518,54.1 L28.1857518,54.1 Z M27.3857518,50.6 C26.8857518,51.1 26.3857518,51.7 25.6857518,51.9 C25.4857518,52 25.2857518,51.7 25.3857518,51.5 C25.7857518,50.9 26.4857518,50.5 26.9857518,49.9 C27.3857518,49.5 27.6857518,48.9 28.1857518,48.6 C28.2857518,48.5 28.4857518,48.6 28.4857518,48.8 C28.2857518,49.5 27.7857518,50.1 27.3857518,50.6 L27.3857518,50.6 Z M34.9857518,46.9 C34.5857518,47.9 33.7857518,48.8 32.9857518,49.6 C32.2857518,50.3 31.6857518,51 30.7857518,51.4 C30.4857518,51.5 30.3857518,51.2 30.4857518,51 C31.0857518,50.2 31.9857518,49.6 32.6857518,48.9 C33.3857518,48.2 33.9857518,47.4 34.5857518,46.7 C34.7857518,46.6 35.0857518,46.7 34.9857518,46.9 L34.9857518,46.9 Z M32.0857518,27.9 C31.5857518,27.4 31.3857518,26.7 30.9857518,26.1 C30.6857518,25.6 30.3857518,25.1 30.1857518,24.5 C30.0857518,24.3 30.3857518,24 30.5857518,24.2 C31.1857518,24.7 31.4857518,25.4 31.8857518,26 C32.1857518,26.6 32.4857518,27.1 32.4857518,27.8 C32.3857518,27.9 32.1857518,28 32.0857518,27.9 L32.0857518,27.9 Z M32.3857518,33.1 C32.3857518,33.6 32.4857518,34.3 32.1857518,34.8 C32.0857518,35 31.7857518,35 31.6857518,34.8 C31.4857518,34.3 31.5857518,33.6 31.4857518,33 C31.3857518,32.4 31.3857518,31.8 31.4857518,31.2 C31.4857518,31 31.8857518,30.9 31.9857518,31.2 C32.2857518,31.8 32.3857518,32.5 32.3857518,33.1 L32.3857518,33.1 Z M31.2857518,45.9 C31.5857518,45.3 31.8857518,44.8 32.1857518,44.2 C32.3857518,43.6 32.5857518,43 32.8857518,42.5 C32.9857518,42.3 33.2857518,42.4 33.2857518,42.6 C33.1857518,43.8 32.6857518,45.4 31.6857518,46.2 C31.4857518,46.3 31.1857518,46.1 31.2857518,45.9 L31.2857518,45.9 Z M36.5857518,43.5 C36.4857518,43.8 35.9857518,43.7 36.0857518,43.3 C36.4857518,41.4 36.9857518,39.1 37.8857518,37.4 C38.0857518,37.1 38.4857518,37.2 38.3857518,37.6 C38.1857518,39.6 37.4857518,41.8 36.5857518,43.5 L36.5857518,43.5 Z M38.4857518,29.4 C38.8857518,30.2 38.8857518,31.1 38.9857518,32 C38.9857518,32.7 39.0857518,33.5 38.7857518,34.2 C38.6857518,34.4 38.3857518,34.4 38.3857518,34.2 C38.1857518,33.4 38.2857518,32.6 38.1857518,31.8 C38.1857518,31 37.9857518,30.2 38.0857518,29.4 C38.0857518,29.2 38.3857518,29.2 38.4857518,29.4 L38.4857518,29.4 Z M35.5857518,20.7 C36.3857518,21.4 36.8857518,22.4 37.2857518,23.3 C37.6857518,24.2 38.1857518,25.3 37.8857518,26.2 C37.7857518,26.4 37.5857518,26.4 37.4857518,26.2 C36.8857518,25.5 36.6857518,24.2 36.2857518,23.4 C35.8857518,22.6 35.4857518,21.8 35.2857518,20.9 C35.2857518,20.7 35.4857518,20.6 35.5857518,20.7 L35.5857518,20.7 Z M34.5857518,26.4 C34.9857518,27.1 35.2857518,27.9 35.3857518,28.6 C35.4857518,29.2 35.6857518,30.1 35.2857518,30.6 C35.1857518,30.7 34.9857518,30.7 34.8857518,30.6 C34.5857518,30.1 34.6857518,29.3 34.4857518,28.7 C34.2857518,28 33.9857518,27.3 33.8857518,26.6 C33.8857518,26.3 34.3857518,26.1 34.5857518,26.4 L34.5857518,26.4 Z M33.9857518,36.5 C34.0857518,35.8 34.0857518,35.1 34.3857518,34.4 C34.4857518,34.1 34.8857518,34.2 34.9857518,34.4 C35.1857518,35.1 35.0857518,35.9 34.9857518,36.6 C34.8857518,37.4 34.7857518,38.3 34.3857518,39 C34.2857518,39.2 33.9857518,39.2 33.8857518,38.9 C33.6857518,38.1 33.8857518,37.3 33.9857518,36.5 L33.9857518,36.5 Z M33.1857518,23.4 C32.4857518,23 32.1857518,22.3 31.7857518,21.7 C31.3857518,21.1 30.7857518,20.5 30.2857518,19.9 C30.0857518,19.7 30.3857518,19.3 30.6857518,19.4 C31.4857518,19.8 31.9857518,20.5 32.4857518,21.2 C32.8857518,21.8 33.4857518,22.5 33.4857518,23.3 C33.4857518,23.3 33.3857518,23.4 33.1857518,23.4 L33.1857518,23.4 Z M29.9857518,13.5 C30.8857518,13.6 31.5857518,14.4 32.0857518,15.2 C32.5857518,16 33.2857518,16.8 33.4857518,17.7 C33.5857518,18 33.2857518,18.2 32.9857518,18 C32.2857518,17.5 31.9857518,16.6 31.5857518,15.9 C31.0857518,15.1 30.3857518,14.5 29.8857518,13.7 C29.7857518,13.7 29.7857518,13.5 29.9857518,13.5 L29.9857518,13.5 Z M30.7857518,39.5 C30.9857518,39.3 31.2857518,39.5 31.1857518,39.7 C31.0857518,40.5 30.8857518,41.3 30.6857518,42 C30.4857518,42.6 30.3857518,43.1 29.9857518,43.6 C29.8857518,43.7 29.6857518,43.6 29.6857518,43.5 C29.8857518,42.2 29.9857518,40.5 30.7857518,39.5 L30.7857518,39.5 Z M29.2857518,31.1 C29.3857518,31.7 29.4857518,32.4 29.2857518,33 C29.1857518,33.2 28.8857518,33.3 28.8857518,33 C28.6857518,32.4 28.6857518,31.8 28.5857518,31.1 C28.4857518,30.5 28.2857518,29.9 28.2857518,29.3 C28.2857518,29 28.6857518,28.9 28.7857518,29.2 C29.0857518,29.9 29.1857518,30.5 29.2857518,31.1 L29.2857518,31.1 Z M28.4857518,21.1 C27.9857518,20.9 27.6857518,20.5 27.3857518,20 C26.8857518,19.4 26.3857518,18.9 25.8857518,18.4 C25.6857518,18.2 25.8857518,17.8 26.1857518,17.9 C26.7857518,18.2 27.2857518,18.7 27.7857518,19.2 C28.1857518,19.7 28.7857518,20.2 28.7857518,20.8 C28.6857518,20.9 28.5857518,21.1 28.4857518,21.1 L28.4857518,21.1 Z M28.0857518,16.1 C27.4857518,15.8 26.9857518,15.2 26.5857518,14.7 C26.0857518,14.2 25.5857518,13.8 25.1857518,13.2 C24.9857518,13 25.2857518,12.6 25.5857518,12.8 C26.2857518,13.2 26.8857518,13.8 27.3857518,14.3 C27.7857518,14.8 28.2857518,15.2 28.5857518,15.8 C28.4857518,15.9 28.2857518,16.2 28.0857518,16.1 L28.0857518,16.1 Z M24.5857518,7.4 C25.2857518,7.9 25.7857518,8.5 26.4857518,9.1 C27.0857518,9.6 27.7857518,10 28.0857518,10.7 C28.1857518,10.9 27.9857518,11.3 27.6857518,11.2 C26.8857518,10.8 26.1857518,10 25.4857518,9.4 C24.9857518,8.9 24.3857518,8.4 24.1857518,7.7 C24.1857518,7.4 24.4857518,7.2 24.5857518,7.4 L24.5857518,7.4 Z M24.1857518,27.5 C24.6857518,28.6 25.2857518,30.3 24.9857518,31.5 C24.8857518,31.7 24.5857518,31.8 24.5857518,31.5 C24.3857518,30.9 24.3857518,30.3 24.2857518,29.7 C24.1857518,29 23.8857518,28.3 23.6857518,27.7 C23.5857518,27.3 24.0857518,27.1 24.1857518,27.5 L24.1857518,27.5 Z M23.5857518,20 C23.5857518,20.1 23.4857518,20.3 23.3857518,20.3 C22.7857518,20.2 22.2857518,19.6 21.8857518,19.1 C21.3857518,18.5 20.9857518,18 20.5857518,17.3 C20.4857518,17.1 20.6857518,16.8 20.8857518,17 C21.3857518,17.5 21.7857518,18 22.1857518,18.5 C22.6857518,18.9 23.2857518,19.4 23.5857518,20 L23.5857518,20 Z M21.6857518,13.6 C21.1857518,13.1 20.8857518,12.4 20.4857518,11.9 C19.9857518,11.3 19.3857518,10.6 18.7857518,10.1 C18.5857518,9.9 18.7857518,9.7 18.9857518,9.8 C20.1857518,10.7 21.7857518,11.8 22.0857518,13.4 C22.1857518,13.6 21.8857518,13.8 21.6857518,13.6 L21.6857518,13.6 Z M18.2857518,2.5 C18.9857518,2.7 19.5857518,3.1 20.1857518,3.5 C20.7857518,4 21.5857518,4.4 21.9857518,5.1 C22.0857518,5.3 21.8857518,5.5 21.6857518,5.5 C20.8857518,5.3 20.2857518,4.6 19.6857518,4.1 C19.1857518,3.7 18.5857518,3.3 18.0857518,2.8 C18.0857518,2.6 18.1857518,2.4 18.2857518,2.5 L18.2857518,2.5 Z M18.3857518,5.8 C19.5857518,6.1 20.9857518,7.1 21.5857518,8.3 C21.6857518,8.6 21.3857518,8.9 21.0857518,8.8 C20.4857518,8.5 20.1857518,8 19.6857518,7.6 C19.1857518,7.2 18.6857518,6.9 18.1857518,6.5 C17.7857518,6.2 17.9857518,5.8 18.3857518,5.8 L18.3857518,5.8 Z M16.5857518,12.3 C17.4857518,13 18.6857518,13.7 19.2857518,14.7 C19.3857518,14.9 19.1857518,15.2 18.9857518,15.1 C17.9857518,14.5 16.9857518,13.5 16.2857518,12.7 C15.9857518,12.4 16.3857518,12.2 16.5857518,12.3 L16.5857518,12.3 Z M13.7857518,15.2 C14.9857518,16 16.2857518,17.1 17.1857518,18.3 C17.3857518,18.6 17.0857518,18.8 16.7857518,18.7 C16.0857518,18.2 15.4857518,17.6 14.8857518,17 C14.3857518,16.5 13.8857518,16.1 13.4857518,15.6 C13.1857518,15.3 13.5857518,15 13.7857518,15.2 L13.7857518,15.2 Z M11.6857518,18.3 C12.5857518,18.6 13.5857518,19.4 13.7857518,20.4 C13.7857518,20.5 13.6857518,20.7 13.4857518,20.6 C12.7857518,20 12.1857518,19.3 11.3857518,18.8 C11.1857518,18.6 11.3857518,18.2 11.6857518,18.3 L11.6857518,18.3 Z M9.18575179,21.3 C10.5857518,22 11.9857518,23.4 12.5857518,24.9 C12.6857518,25.1 12.3857518,25.3 12.2857518,25.1 C11.6857518,24.5 11.1857518,23.9 10.6857518,23.3 C10.0857518,22.7 9.48575179,22.2 8.98575179,21.7 C8.78575179,21.5 8.88575179,21.2 9.18575179,21.3 L9.18575179,21.3 Z M7.68575179,25 C8.38575179,25.1 8.98575179,25.7 9.48575179,26.2 C9.98575179,26.7 10.4857518,27.3 10.7857518,28 C10.8857518,28.2 10.5857518,28.5 10.3857518,28.3 C9.88575179,27.8 9.38575179,27.2 8.88575179,26.6 C8.48575179,26.2 7.88575179,25.8 7.58575179,25.4 C7.38575179,25.1 7.48575179,24.9 7.68575179,25 L7.68575179,25 Z M6.78575179,29.2 C7.58575179,29.4 7.98575179,30.2 8.28575179,31 C8.48575179,31.8 8.68575179,32.7 8.58575179,33.5 C8.48575179,33.8 8.18575179,33.8 8.08575179,33.6 C7.78575179,32.9 7.78575179,32.2 7.58575179,31.5 C7.38575179,30.8 6.98575179,30.3 6.58575179,29.7 C6.38575179,29.4 6.58575179,29.1 6.78575179,29.2 L6.78575179,29.2 Z M5.48575179,38 C5.68575179,37.4 5.78575179,36.7 6.08575179,36.2 C6.18575179,35.9 6.58575179,36 6.58575179,36.3 C6.68575179,36.9 6.48575179,37.6 6.28575179,38.2 C6.08575179,38.8 5.88575179,39.6 5.48575179,40.2 C5.38575179,40.4 5.08575179,40.3 5.08575179,40.1 C4.98575179,39.3 5.28575179,38.6 5.48575179,38 L5.48575179,38 Z M5.08575179,42.7 C4.68575179,43.3 4.28575179,44.1 3.58575179,44.3 C3.38575179,44.4 3.28575179,44.2 3.38575179,44 C3.78575179,43.4 4.38575179,43 4.88575179,42.5 C4.98575179,42.4 5.18575179,42.6 5.08575179,42.7 L5.08575179,42.7 Z M3.38575179,30.5 C4.18575179,31.6 4.58575179,33.6 4.08575179,34.9 C3.98575179,35.1 3.68575179,35.1 3.68575179,34.8 C3.58575179,34 3.58575179,33.3 3.48575179,32.5 C3.38575179,31.9 3.18575179,31.2 3.08575179,30.6 C3.08575179,30.5 3.28575179,30.4 3.38575179,30.5 L3.38575179,30.5 Z M2.58575179,38.3 C2.68575179,37.9 2.88575179,37.5 3.08575179,37.1 C3.18575179,36.9 3.48575179,37 3.38575179,37.2 C3.38575179,37.9 3.38575179,39.3 2.48575179,39.6 C2.38575179,39.6 2.18575179,39.6 2.18575179,39.4 C2.18575179,39 2.48575179,38.7 2.58575179,38.3 L2.58575179,38.3 Z" id="Shape-Copy-9" fill="#000000" sketch:type="MSShapeGroup"></path>
    </g>
</svg>
