<?xml version="1.0" encoding="UTF-8" standalone="no"?>
<svg width="29px" height="71px" viewBox="0 0 29 71" version="1.1" xmlns="http://www.w3.org/2000/svg" xmlns:xlink="http://www.w3.org/1999/xlink" xmlns:sketch="http://www.bohemiancoding.com/sketch/ns">
    <!-- Generator: Sketch 3.4 (15588) - http://www.bohemiancoding.com/sketch -->
    <title>Note_Red</title>
    <desc>Created with Sketch.</desc>
    <defs></defs>
    <g id="Page-1" stroke="none" stroke-width="1" fill="none" fill-rule="evenodd" sketch:type="MSPage">
        <g id="Red" sketch:type="MSLayerGroup" transform="translate(0.000000, -1.000000)" fill="#DF283E">
            <path d="M25.5298246,38.6666667 C25.5298246,38.7842424 25.4701754,38.9018182 25.4701754,39.0193939 C26.0666667,38.3727273 26.722807,37.7260606 27.3192982,37.1381818 C26.722807,37.1969697 26.1859649,37.3145455 25.5894737,37.3733333 C25.7087719,37.8436364 25.6491228,38.2551515 25.5298246,38.6666667 L25.5298246,38.6666667 L25.5298246,38.6666667 Z" id="Shape" sketch:type="MSShapeGroup"></path>
            <path d="M24.8736842,39.5484848 L24.8736842,39.2545455 C24.9333333,39.0193939 24.9333333,38.7842424 24.9929825,38.5490909 C25.0526316,38.1963636 25.0526316,37.7848485 25.0526316,37.4321212 C24.3368421,37.6084848 23.5614035,37.7848485 22.845614,38.02 C23.0842105,38.1963636 23.2631579,38.4315152 23.4421053,38.5490909 C23.9192982,38.9606061 24.3964912,39.2545455 24.8736842,39.5484848 L24.8736842,39.5484848 L24.8736842,39.5484848 Z" id="Shape" sketch:type="MSShapeGroup"></path>
            <path d="M17.5368421,44.7806061 C17.7157895,44.7218182 17.8947368,44.6630303 18.0736842,44.6042424 C17.1192982,44.0163636 16.1052632,43.4872727 15.2105263,42.8406061 C14.7929825,43.2521212 14.3157895,43.6048485 13.8385965,43.9575758 C13.7789474,44.1339394 13.7192982,44.310303 13.6596491,44.4866667 C14.9122807,44.7806061 16.045614,45.1921212 17.5368421,44.7806061 L17.5368421,44.7806061 L17.5368421,44.7806061 Z" id="Shape" sketch:type="MSShapeGroup"></path>
            <path d="M18.9087719,44.310303 C19.9824561,43.84 20.9964912,43.1345455 21.9508772,42.4290909 C22.0105263,42.370303 22.0701754,42.3115152 22.1894737,42.2527273 C21.1157895,41.6648485 20.1017544,41.0181818 19.0280702,40.3715152 C18.9684211,41.6060606 18.9684211,42.9581818 18.9087719,44.310303 L18.9087719,44.310303 L18.9087719,44.310303 Z" id="Shape" sketch:type="MSShapeGroup"></path>
            <path d="M15.5684211,42.5466667 C16.4631579,43.0169697 17.3578947,43.4872727 18.2526316,44.0163636 C18.3122807,42.7230303 18.3122807,41.4884848 18.3122807,40.1951515 C17.3578947,40.9006061 16.4631579,41.7236364 15.5684211,42.5466667 L15.5684211,42.5466667 L15.5684211,42.5466667 Z" id="Shape" sketch:type="MSShapeGroup"></path>
            <path d="M22.7263158,41.6648485 C23.322807,41.1357576 23.8596491,40.6066667 24.4561404,40.0775758 C23.9789474,39.7836364 23.5017544,39.489697 23.0842105,39.1369697 L23.0842105,39.1369697 C23.0245614,39.0781818 22.9052632,38.9606061 22.7263158,38.8430303 L22.7263158,41.6648485 L22.7263158,41.6648485 L22.7263158,41.6648485 Z" id="Shape" sketch:type="MSShapeGroup"></path>
            <path d="M1.67017544,53.9515152 C2.32631579,52.9521212 3.04210526,52.0115152 3.57894737,51.0121212 C2.68421053,51.0121212 1.78947368,50.8357576 0.894736842,50.8945455 C1.07368421,51.7175758 1.25263158,52.4818182 1.49122807,53.2460606 C1.49122807,53.4812121 1.61052632,53.7163636 1.67017544,53.9515152 L1.67017544,53.9515152 L1.67017544,53.9515152 Z" id="Shape" sketch:type="MSShapeGroup"></path>
            <path d="M6.26315789,58.3018182 C5.4877193,58.3018182 4.65263158,58.2430303 3.87719298,58.2430303 C4.41403509,58.889697 5.12982456,59.4187879 5.90526316,59.830303 C6.0245614,59.5363636 6.20350877,59.2424242 6.32280702,59.0072727 C6.32280702,58.7721212 6.32280702,58.5369697 6.26315789,58.3018182 L6.26315789,58.3018182 L6.26315789,58.3018182 Z" id="Shape" sketch:type="MSShapeGroup"></path>
            <path d="M5.18947368,54.8333333 C4.11578947,54.5981818 3.04210526,54.5393939 1.90877193,54.7157576 C2.26666667,55.7739394 2.74385965,56.7733333 3.4,57.6551515 C3.99649123,56.6557576 4.65263158,55.7739394 5.18947368,54.8333333 L5.18947368,54.8333333 L5.18947368,54.8333333 Z" id="Shape" sketch:type="MSShapeGroup"></path>
            <path d="M0.238596491,47.1321212 C0.715789474,47.1321212 1.13333333,47.1909091 1.61052632,47.249697 C1.13333333,46.6030303 0.656140351,45.9563636 0.0596491228,45.3684848 C0.119298246,45.9563636 0.178947368,46.5442424 0.238596491,47.1321212 L0.238596491,47.1321212 L0.238596491,47.1321212 Z" id="Shape" sketch:type="MSShapeGroup"></path>
            <path d="M19.6842105,39.3721212 C19.5052632,39.489697 19.3263158,39.5484848 19.1473684,39.6660606 C20.1017544,40.2539394 21.1157895,40.9006061 22.0701754,41.429697 L22.0701754,38.3139394 C21.2350877,38.6078788 20.4596491,38.9606061 19.6842105,39.3721212 L19.6842105,39.3721212 L19.6842105,39.3721212 Z" id="Shape" sketch:type="MSShapeGroup"></path>
            <path d="M3.63859649,50.3654545 C3.22105263,49.6012121 2.74385965,48.8369697 2.26666667,48.1315152 C1.90877193,48.8369697 1.55087719,49.5424242 1.19298246,50.2478788 C1.96842105,50.2478788 2.80350877,50.3654545 3.63859649,50.3654545 L3.63859649,50.3654545 L3.63859649,50.3654545 Z" id="Shape" sketch:type="MSShapeGroup"></path>
            <path d="M5.60701754,55.3624242 C5.18947368,56.1266667 4.65263158,56.8321212 4.1754386,57.5963636 C4.83157895,57.6551515 5.4877193,57.6551515 6.14385965,57.6551515 C6.0245614,56.8909091 5.84561404,56.1266667 5.60701754,55.3624242 L5.60701754,55.3624242 L5.60701754,55.3624242 Z" id="Shape" sketch:type="MSShapeGroup"></path>
            <path d="M5.24912281,54.1866667 C4.89122807,53.1872727 4.53333333,52.2466667 4.05614035,51.3060606 C3.57894737,52.2466667 2.92280702,53.1284848 2.32631579,54.010303 C3.34035088,53.8927273 4.29473684,53.9515152 5.24912281,54.1866667 L5.24912281,54.1866667 L5.24912281,54.1866667 Z" id="Shape" sketch:type="MSShapeGroup"></path>
            <path d="M1.67017544,47.8963636 C1.19298246,47.7787879 0.775438596,47.72 0.298245614,47.6024242 C0.41754386,48.3666667 0.477192982,49.1309091 0.656140351,49.8951515 C1.01403509,49.2484848 1.37192982,48.6018182 1.67017544,47.8963636 L1.67017544,47.8963636 L1.67017544,47.8963636 Z" id="Shape" sketch:type="MSShapeGroup"></path>
            <path d="M9.90175439,61.1236364 C10.9157895,61.0060606 11.9894737,60.7121212 12.9438596,60.3006061 C12.0491228,59.6539394 11.2736842,59.0072727 10.5578947,58.1842424 C10.3192982,59.1248485 10.1403509,60.1242424 9.90175439,61.1236364 L9.90175439,61.1236364 L9.90175439,61.1236364 Z" id="Shape" sketch:type="MSShapeGroup"></path>
            <path d="M13.1824561,59.6539394 C13.3614035,58.6545455 13.6,57.7139394 13.8982456,56.7145455 C12.9438596,57.0084848 11.9894737,57.3612121 11.0350877,57.7139394 C11.6912281,58.4193939 12.4070175,59.0660606 13.1824561,59.6539394 L13.1824561,59.6539394 L13.1824561,59.6539394 Z" id="Shape" sketch:type="MSShapeGroup"></path>
            <path d="M9.36491228,60.6533333 C9.54385965,59.830303 9.72280702,59.0072727 9.90175439,58.2430303 C9.18596491,58.5369697 8.52982456,58.889697 7.81403509,59.2424242 C8.47017544,59.5363636 8.8877193,60.1242424 9.36491228,60.6533333 L9.36491228,60.6533333 L9.36491228,60.6533333 Z" id="Shape" sketch:type="MSShapeGroup"></path>
            <path d="M8.94736842,61.1236364 C8.41052632,60.5357576 7.93333333,59.9478788 7.33684211,59.4775758 C7.15789474,59.7715152 6.97894737,60.1242424 6.8,60.4181818 C7.45614035,60.8884848 8.17192982,61.0648485 8.94736842,61.1236364 L8.94736842,61.1236364 L8.94736842,61.1236364 Z" id="Shape" sketch:type="MSShapeGroup"></path>
            <path d="M15.0315789,56.4206061 C15.6280702,56.8909091 16.1052632,57.3612121 16.6421053,57.890303 C16.7614035,57.2436364 16.8807018,56.6557576 17.0596491,56.0678788 C16.3438596,56.1266667 15.6877193,56.2442424 15.0315789,56.4206061 L15.0315789,56.4206061 L15.0315789,56.4206061 Z" id="Shape" sketch:type="MSShapeGroup"></path>
            <path d="M16.4631579,58.5957576 C15.8666667,58.0078788 15.2701754,57.3612121 14.554386,56.8321212 C14.2561404,57.8315152 14.0175439,58.889697 13.8385965,59.9478788 C14.0175439,59.830303 14.2561404,59.7715152 14.4350877,59.6539394 C15.0912281,59.36 15.7473684,59.0072727 16.4631579,58.5957576 L16.4631579,58.5957576 L16.4631579,58.5957576 Z" id="Shape" sketch:type="MSShapeGroup"></path>
            <path d="M17.3578947,57.1260606 C17.2982456,57.4787879 17.2385965,57.7727273 17.2385965,58.1254545 C17.7754386,57.7727273 18.3719298,57.42 18.8491228,57.0672727 C18.3122807,56.4793939 17.5964912,55.8915152 17.3578947,57.1260606 L17.3578947,57.1260606 L17.3578947,57.1260606 Z" id="Shape" sketch:type="MSShapeGroup"></path>
            <path d="M19.3263158,56.7145455 C19.6842105,56.4206061 20.1017544,56.1266667 20.4596491,55.8327273 C19.7438596,55.8327273 19.0877193,55.8327273 18.4315789,55.8915152 C18.7894737,56.1266667 19.0280702,56.4206061 19.3263158,56.7145455 L19.3263158,56.7145455 L19.3263158,56.7145455 Z" id="Shape" sketch:type="MSShapeGroup"></path>
            <path d="M11.9894737,40.5478788 C11.9894737,40.5478788 11.9894737,40.4890909 11.9894737,40.5478788 C11.7508772,41.2533333 11.5719298,42.0175758 11.2736842,42.7230303 C11.6315789,43.0757576 12.0491228,43.369697 12.5263158,43.6048485 C12.5859649,43.4872727 12.5859649,43.3109091 12.645614,43.1933333 C12.4666667,42.3115152 12.3473684,41.429697 11.9894737,40.5478788 L11.9894737,40.5478788 L11.9894737,40.5478788 Z" id="Shape" sketch:type="MSShapeGroup"></path>
            <path d="M10.8561404,42.3115152 C11.154386,41.4884848 11.3929825,40.6654545 11.5719298,39.7836364 C10.7368421,39.7248485 9.90175439,39.7248485 9.06666667,39.7248485 C9.54385965,40.7242424 10.1403509,41.6060606 10.8561404,42.3115152 L10.8561404,42.3115152 L10.8561404,42.3115152 Z" id="Shape" sketch:type="MSShapeGroup"></path>
            <path d="M15.6877193,19.4430303 C15.4491228,20.7951515 14.9122807,22.029697 14.4947368,23.3230303 C15.3298246,23.0290909 16.2245614,22.9115152 17.1789474,22.970303 L17.1789474,22.9115152 C16.8210526,21.7357576 16.3438596,20.56 15.6877193,19.4430303 L15.6877193,19.4430303 L15.6877193,19.4430303 Z" id="Shape" sketch:type="MSShapeGroup"></path>
            <path d="M10.9157895,16.0921212 C11.0947368,16.9151515 11.3333333,17.7381818 11.5719298,18.62 C11.9894737,17.7381818 12.3473684,16.8563636 12.5859649,15.9157576 C11.9894737,16.0333333 11.4526316,16.1509091 10.9157895,16.0921212 L10.9157895,16.0921212 L10.9157895,16.0921212 Z" id="Shape" sketch:type="MSShapeGroup"></path>
            <path d="M7.69473684,35.609697 C8.17192982,35.609697 8.58947368,35.6684848 9.06666667,35.7272727 C8.47017544,34.9630303 7.81403509,34.2575758 7.15789474,33.4933333 C7.33684211,34.1987879 7.51578947,34.9042424 7.69473684,35.609697 L7.69473684,35.609697 L7.69473684,35.609697 Z" id="Shape" sketch:type="MSShapeGroup"></path>
            <path d="M14.2561404,24.1460606 C14.9122807,24.8515152 15.7473684,25.3806061 16.7614035,25.6745455 C16.8807018,25.0278788 16.9403509,24.3224242 17,23.6757576 C16.1052632,23.6169697 15.1508772,23.7933333 14.2561404,24.1460606 L14.2561404,24.1460606 L14.2561404,24.1460606 Z" id="Shape" sketch:type="MSShapeGroup"></path>
            <path d="M9.60350877,36.4327273 L9.60350877,36.4327273 C9.00701754,36.3151515 8.41052632,36.2563636 7.81403509,36.1387879 C8.05263158,37.0206061 8.29122807,37.8436364 8.58947368,38.6666667 C8.94736842,37.9024242 9.30526316,37.1969697 9.60350877,36.4327273 L9.60350877,36.4327273 L9.60350877,36.4327273 Z" id="Shape" sketch:type="MSShapeGroup"></path>
            <path d="M10.0210526,37.0206061 C9.72280702,37.7260606 9.36491228,38.4315152 9.12631579,39.1369697 C9.90175439,39.1369697 10.6175439,39.1369697 11.3929825,39.1957576 C11.0947368,38.5490909 10.677193,37.9024242 10.3192982,37.3145455 C10.2,37.2557576 10.1403509,37.1381818 10.0210526,37.0206061 L10.0210526,37.0206061 L10.0210526,37.0206061 Z" id="Shape" sketch:type="MSShapeGroup"></path>
            <path d="M13.7192982,23.4993939 C14.2561404,22.029697 14.8526316,20.6187879 15.0912281,19.090303 C14.0175439,19.3254545 12.9438596,19.5018182 11.8105263,19.5606061 C12.2877193,20.9715152 12.8842105,22.3824242 13.7192982,23.4993939 L13.7192982,23.4993939 L13.7192982,23.4993939 Z" id="Shape" sketch:type="MSShapeGroup"></path>
            <path d="M12.2280702,18.7963636 C13.1824561,18.7375758 14.077193,18.5612121 15.0315789,18.3848485 C14.4947368,17.6206061 13.8982456,16.8563636 13.1824561,16.1509091 C12.9438596,17.0327273 12.5859649,17.9145455 12.2280702,18.7963636 L12.2280702,18.7963636 L12.2280702,18.7963636 Z" id="Shape" sketch:type="MSShapeGroup"></path>
            <path d="M10.7964912,15.6806061 C11.2736842,15.5042424 11.8105263,15.3866667 12.2877193,15.3278788 C11.6315789,14.74 10.9754386,14.2109091 10.2596491,13.7406061 C10.4385965,14.3284848 10.6175439,14.9751515 10.7964912,15.6806061 L10.7964912,15.6806061 L10.7964912,15.6806061 Z" id="Shape" sketch:type="MSShapeGroup"></path>
            <path d="M20.5192982,24.6751515 C19.8035088,24.44 19.0877193,24.1460606 18.4315789,23.7933333 C18.3122807,24.3812121 18.2526316,24.910303 18.1333333,25.4393939 C18.9684211,25.3218182 19.7438596,25.0278788 20.5192982,24.6751515 L20.5192982,24.6751515 L20.5192982,24.6751515 Z" id="Shape" sketch:type="MSShapeGroup"></path>
            <path d="M25.0526316,20.9715152 C25.6491228,20.2660606 26.1859649,19.5018182 26.6631579,18.6787879 C25.9473684,18.2672727 25.2315789,18.0321212 24.4561404,17.9733333 C24.6947368,18.9727273 24.9333333,19.9721212 25.0526316,20.9715152 L25.0526316,20.9715152 L25.0526316,20.9715152 Z" id="Shape" sketch:type="MSShapeGroup"></path>
            <path d="M18.5508772,23.3818182 C19.3263158,23.4993939 20.1017544,23.8521212 20.877193,24.0872727 C20.7578947,22.970303 20.6385965,21.9121212 20.4596491,20.7951515 C19.7438596,21.6181818 19.0877193,22.4412121 18.5508772,23.3818182 L18.5508772,23.3818182 L18.5508772,23.3818182 Z" id="Shape" sketch:type="MSShapeGroup"></path>
            <path d="M21.5333333,24.1460606 C22.6070175,23.4993939 23.5614035,22.6763636 24.4561404,21.6769697 C23.3824561,21.2654545 22.2491228,20.9715152 21.1157895,20.6775758 C21.2350877,21.8533333 21.4140351,22.970303 21.5333333,24.1460606 L21.5333333,24.1460606 L21.5333333,24.1460606 Z" id="Shape" sketch:type="MSShapeGroup"></path>
            <path d="M21.2350877,20.0309091 C22.3087719,20.2660606 23.322807,20.5012121 24.3368421,20.8539394 C24.2175439,19.8545455 23.9789474,18.9139394 23.8,17.9733333 C22.9052632,18.5612121 22.0105263,19.2666667 21.2350877,20.0309091 L21.2350877,20.0309091 L21.2350877,20.0309091 Z" id="Shape" sketch:type="MSShapeGroup"></path>
            <path d="M24.754386,17.3266667 C25.3508772,17.3854545 25.9473684,17.5618182 26.5438596,17.7969697 C26.4245614,17.3266667 26.3649123,16.8563636 26.3052632,16.3860606 C25.7684211,16.68 25.2315789,16.9739394 24.754386,17.3266667 L24.754386,17.3266667 L24.754386,17.3266667 Z" id="Shape" sketch:type="MSShapeGroup"></path>
            <path d="M27.0210526,15.9745455 C26.9017544,16.5036364 27.0807018,17.150303 27.2596491,17.7381818 C27.7368421,16.9151515 28.0947368,16.0921212 28.4526316,15.210303 C27.9157895,15.5042424 27.4982456,15.7393939 27.0210526,15.9745455 L27.0210526,15.9745455 L27.0210526,15.9745455 Z" id="Shape" sketch:type="MSShapeGroup"></path>
            <path d="M7.33684211,59.4775758 C7.39649123,59.36 7.45614035,59.1836364 7.5754386,59.0660606 C9.60350877,55.3036364 11.8105263,49.7187879 13.6596491,44.4866667 C13.7192982,44.310303 13.7789474,44.1339394 13.8385965,43.9575758 C14.0175439,43.5460606 14.1368421,43.0757576 14.3157895,42.6642424 C16.045614,37.6672727 17.1192982,31.6709091 18.1929825,25.4393939 C18.3122807,24.910303 18.3719298,24.3224242 18.4912281,23.7933333 C18.5508772,23.3818182 18.6105263,22.970303 18.6701754,22.5587879 C19.6245614,16.7975758 20.0421053,5.09878788 20.2210526,0.454545455 C19.8631579,0.572121212 19.5052632,0.395757576 19.2070175,0.101818182 C18.8491228,4.68727273 17.7754386,17.4442424 17.2385965,22.9115152 L17.2385965,22.970303 C17.2385965,23.2054545 17.1789474,23.4406061 17.1789474,23.6757576 L17.1789474,23.6757576 C17.1192982,24.3224242 17,25.0278788 16.9403509,25.6745455 C16.1052632,31.2593939 14.4947368,37.4321212 13.0035088,42.6054545 C12.9438596,42.8406061 12.8842105,43.0757576 12.8245614,43.2521212 C12.7649123,43.369697 12.7649123,43.5460606 12.7052632,43.6636364 C11.0947368,48.9545455 9.06666667,53.3636364 7.15789474,57.6551515 C6.97894737,58.0666667 6.74035088,58.5369697 6.50175439,59.0072727 C6.38245614,59.3012121 6.20350877,59.5363636 6.08421053,59.830303 C3.87719298,64.1806061 0.835087719,69.4127273 0.357894737,70.0593939 C-0.119298246,70.8236364 0.178947368,71 0.835087719,70.4121212 C1.43157895,69.8830303 4.59298246,64.5921212 6.85964912,60.4769697 C6.97894737,60.1242424 7.15789474,59.7715152 7.33684211,59.4775758 L7.33684211,59.4775758 L7.33684211,59.4775758 Z" id="Shape" sketch:type="MSShapeGroup"></path>
        </g>
    </g>
</svg>
