<?xml version="1.0" encoding="UTF-8" standalone="no"?>
<svg width="40px" height="31px" viewBox="0 0 40 31" version="1.1" xmlns="http://www.w3.org/2000/svg" xmlns:xlink="http://www.w3.org/1999/xlink" xmlns:sketch="http://www.bohemiancoding.com/sketch/ns">
    <!-- Generator: Sketch 3.3.2 (12043) - http://www.bohemiancoding.com/sketch -->
    <title>Shape</title>
    <desc>Created with Sketch.</desc>
    <defs></defs>
    <g id="Page-1" stroke="none" stroke-width="1" fill="none" fill-rule="evenodd" sketch:type="MSPage">
        <g id="Mobile-Footer" sketch:type="MSArtboardGroup" transform="translate(-20.000000, -29.000000)" fill="#E57078">
            <g id="Шапка" sketch:type="MSLayerGroup" transform="translate(20.000000, 4.000000)">
                <path d="M26.8130529,54.1566103 C31.8448084,51.6062685 38.8754804,42.7834644 32.0515929,38.3031342 C31.7758802,38.0963498 31.9137365,37.751709 32.1894492,37.6138527 C37.2901328,36.2352895 40.5986843,30.1006836 39.9094027,25 C38.7376241,25.6203534 37.4279891,26.309635 36.0494259,26.2407068 C37.6347735,30.9967496 35.0155036,34.5120856 31.0176705,36.9934993 C30.6730297,37.2002837 30.3973171,36.7867148 30.4662453,36.5110022 C30.8798142,34.7188701 29.7769637,32.3753128 28.605185,31.1346059 C27.4334064,29.9628273 26.0548432,29.0667612 24.4694956,28.5842641 C21.2988004,27.5503418 17.8523926,27.4814136 14.6127692,28.3085515 C13.3031342,28.6531923 12.2002837,29.1356894 11.1663614,29.824971 C11.3731459,29.8938991 11.5799303,29.9628273 11.7867148,29.9628273 C12.5449245,30.0317554 13.3031342,30.0317554 14.061344,29.824971 C14.1302721,29.7560428 14.2681284,29.8938991 14.1302721,29.9628273 C13.4409906,30.3074681 12.6827808,30.5142525 11.9245711,30.4453244 C11.5110022,30.3763962 11.0285051,30.3763962 10.546008,30.2385399 C9.99458272,30.5831807 9.51208562,30.9967496 9.02958852,31.4103186 C11.3042177,30.9967496 13.5099187,32.9956662 15.853476,31.617103 C15.9913323,31.5481749 16.0602605,31.7549594 15.9224042,31.8238875 C14.8884818,32.4442409 13.7167032,32.5820972 12.5449245,32.3753128 C11.2352895,32.0996001 9.78779825,31.4792467 8.47816327,32.030672 L8.34030696,32.030672 C7.71995355,32.6510254 7.09960014,33.340307 6.47924673,34.0985167 C8.13352249,33.5470914 9.78779825,33.9606604 11.442074,34.3053012 C14.3370566,34.9256546 16.7495421,34.3742293 19.4377402,33.1335225 C19.5066683,33.1335225 19.5755965,33.2024506 19.5066683,33.2024506 C17.8523926,34.3742293 15.5777634,35.132439 13.5099187,34.9945827 C10.9595769,34.7877982 8.68494774,33.7538759 6.13460594,34.6499419 L6.06567779,34.6499419 C5.65210885,35.132439 5.30746806,35.6838643 4.96282728,36.1663614 C7.7888817,35.6838643 10.4081517,36.6488585 13.2342061,36.9934993 C15.1641945,37.2002837 16.8873984,37.1313556 18.7484586,36.5110022 C20.1959499,35.9595769 21.5055849,35.2013672 22.884148,34.6499419 C22.884148,34.6499419 22.9530762,34.6499419 22.884148,34.7188701 C20.4027344,36.3042177 17.7145363,37.8895653 14.7506255,37.751709 C11.2352895,37.6138527 7.92673802,36.3042177 4.41140203,36.9934993 C3.99783309,37.5449245 3.58426415,38.1652779 3.17069521,38.7856313 C5.99674963,37.1313556 9.99458272,38.9234876 12.8206371,39.6816974 C15.3709789,40.3709789 17.7145363,40.2331226 20.0580936,39.061344 C22.1259383,38.0963498 23.9869985,36.7867148 25.9859151,35.6149361 C26.1237714,35.546008 26.1926995,35.7527924 26.1237714,35.8217206 C22.6084354,38.0963498 18.8863149,41.3359731 14.4059847,40.5777634 C10.3392235,39.8884818 6.54817488,37.4759964 2.61926995,39.8195537 C2.5503418,39.8884818 2.48141364,39.8884818 2.41248548,39.8195537 C2.0678447,40.3020508 1.72320392,40.7845479 1.37856313,41.1981168 C5.37639622,39.4749129 9.51208562,41.5427576 13.5099187,42.0941829 C19.2309557,42.9213207 23.9869985,40.2331226 27.9848316,36.3731459 C27.9848316,36.3731459 28.0537598,36.3731459 28.0537598,36.442074 C25.3655617,40.3709789 20.1959499,42.9902489 15.4399071,42.7834644 C13.0274216,42.7145363 10.7527924,41.9563265 8.40923511,41.4738294 C5.721037,40.853476 3.58426415,41.1291887 0.964994193,41.8873984 L0.82713788,41.8873984 C0.551425253,42.2320392 0.275712627,42.57668 7.81597009e-14,42.9213207 C3.51533599,41.1291887 8.47816327,43.1281052 11.9245711,43.9552431 C14.95741,44.6445247 17.57668,44.8513091 20.5405907,43.6795305 C23.7112859,42.4388236 26.1926995,40.3709789 28.7430413,38.2342061 C28.8808976,38.1652779 29.018754,38.3031342 28.9498258,38.4409906 C28.3294724,39.1992003 27.5712627,40.0263382 26.7441248,40.7156197 C29.7769637,45.0580936 28.8119695,49.9519927 25.503418,53.8808976 C25.4344898,53.9498258 25.4344898,53.8808976 25.4344898,53.8119695 C26.4684122,51.7441248 27.7780471,49.7452082 28.0537598,47.3327228 C28.3294724,44.9891654 27.6401908,42.9213207 26.3305559,41.0602605 C25.4344898,41.8184702 24.4005675,42.57668 23.297717,43.1970334 C24.8830646,44.6445247 24.5384238,47.5395072 23.9180704,49.2627112 C23.1598606,51.4684122 21.9191538,53.8808976 19.6445247,54.91482 C19.5755965,54.91482 19.5755965,54.8458918 19.5755965,54.8458918 C21.3677286,53.605185 22.7462917,51.5373403 23.3666451,49.4694956 C24.0559267,47.1948665 23.9869985,45.4027344 22.884148,43.4038178 C21.4366567,44.1620276 19.9202373,44.782381 18.4038178,45.0580936 C19.5066683,45.8852315 18.472746,48.297717 17.9902489,49.193783 C16.9563265,50.9169869 15.5088353,52.709119 13.5788469,53.3294724 C13.4409906,53.3294724 13.4409906,53.1916161 13.5099187,53.1226879 C15.0263382,52.29555 16.3359731,50.8480588 17.2320392,49.4694956 C17.7145363,48.7112859 18.1970334,47.884148 18.3348897,46.988082 C18.4038178,46.2988004 18.1281052,45.8163033 18.059177,45.1959499 C16.8184702,45.4027344 15.5088353,45.4716625 14.2681284,45.2648781 C14.061344,45.1959499 13.8545595,45.1959499 13.647775,45.1270217 C13.7856313,46.9191538 11.6488585,49.0559267 9.99458272,49.4005675 C9.92565456,49.4005675 9.8567264,49.3316393 9.92565456,49.2627112 C11.1663614,48.2287888 13.3720624,46.8502257 13.0963498,44.9891654 C11.6488585,44.7134528 10.2702953,44.2998839 8.82280405,43.9552431 C9.02958852,44.8513091 7.51316908,45.9541596 6.89281567,46.1609441 C6.75495935,46.2298723 6.61710304,46.0230878 6.75495935,45.9541596 C7.23745645,45.4716625 8.20245064,44.9202373 8.2713788,44.1620276 L8.2713788,43.8863149 C7.7888817,43.7484586 7.37531276,43.6795305 6.89281567,43.6106023 C4.82497097,43.1970334 2.41248548,42.7834644 0.482497097,43.6106023 C2.41248548,44.0930994 4.06676124,44.9202373 5.58318069,46.2988004 C7.65102539,48.2287888 9.02958852,50.7791306 11.0974332,52.6401908 C15.1641945,56.1555268 21.9191538,56.7069521 26.8130529,54.1566103 L26.8130529,54.1566103 Z" id="Shape" sketch:type="MSShapeGroup"></path>
            </g>
        </g>
    </g>
</svg>
