<?xml version="1.0" encoding="UTF-8" standalone="no"?>
<svg width="59px" height="45px" viewBox="0 0 59 45" version="1.1" xmlns="http://www.w3.org/2000/svg" xmlns:xlink="http://www.w3.org/1999/xlink" xmlns:sketch="http://www.bohemiancoding.com/sketch/ns">
    <!-- Generator: Sketch 3.3.2 (12043) - http://www.bohemiancoding.com/sketch -->
    <title>Shape</title>
    <desc>Created with Sketch.</desc>
    <defs></defs>
    <g id="Page-1" stroke="none" stroke-width="1" fill="none" fill-rule="evenodd" sketch:type="MSPage">
        <g id="Widgets_Unexpected" sketch:type="MSArtboardGroup" transform="translate(-714.000000, -31.000000)" fill="#E57078">
            <g id="Шапка" sketch:type="MSLayerGroup" transform="translate(615.000000, 20.000000)">
                <path d="M138.8,53.3 C146.1,49.6 156.3,36.8 146.4,30.3 C146,30 146.2,29.5 146.6,29.3 C154,27.3 158.8,18.4 157.8,11 C156.1,11.9 154.2,12.9 152.2,12.8 C154.5,19.7 150.7,24.8 144.9,28.4 C144.4,28.7 144,28.1 144.1,27.7 C144.7,25.1 143.1,21.7 141.4,19.9 C139.7,18.2 137.7,16.9 135.4,16.2 C130.8,14.7 125.8,14.6 121.1,15.8 C119.2,16.3 117.6,17 116.1,18 C116.4,18.1 116.7,18.2 117,18.2 C118.1,18.3 119.2,18.3 120.3,18 C120.4,17.9 120.6,18.1 120.4,18.2 C119.4,18.7 118.3,19 117.2,18.9 C116.6,18.8 115.9,18.8 115.2,18.6 C114.4,19.1 113.7,19.7 113,20.3 C116.3,19.7 119.5,22.6 122.9,20.6 C123.1,20.5 123.2,20.8 123,20.9 C121.5,21.8 119.8,22 118.1,21.7 C116.2,21.3 114.1,20.4 112.2,21.2 L112,21.2 C111.1,22.1 110.2,23.1 109.3,24.2 C111.7,23.4 114.1,24 116.5,24.5 C120.7,25.4 124.2,24.6 128.1,22.8 C128.2,22.8 128.3,22.9 128.2,22.9 C125.8,24.6 122.5,25.7 119.5,25.5 C115.8,25.2 112.5,23.7 108.8,25 L108.7,25 C108.1,25.7 107.6,26.5 107.1,27.2 C111.2,26.5 115,27.9 119.1,28.4 C121.9,28.7 124.4,28.6 127.1,27.7 C129.2,26.9 131.1,25.8 133.1,25 C133.1,25 133.2,25 133.1,25.1 C129.5,27.4 125.6,29.7 121.3,29.5 C116.2,29.3 111.4,27.4 106.3,28.4 C105.7,29.2 105.1,30.1 104.5,31 C108.6,28.6 114.4,31.2 118.5,32.3 C122.2,33.3 125.6,33.1 129,31.4 C132,30 134.7,28.1 137.6,26.4 C137.8,26.3 137.9,26.6 137.8,26.7 C132.7,30 127.3,34.7 120.8,33.6 C114.9,32.6 109.4,29.1 103.7,32.5 C103.6,32.6 103.5,32.6 103.4,32.5 C102.9,33.2 102.4,33.9 101.9,34.5 C107.7,32 113.7,35 119.5,35.8 C127.8,37 134.7,33.1 140.5,27.5 C140.5,27.5 140.6,27.5 140.6,27.6 C136.7,33.3 129.2,37.1 122.3,36.8 C118.8,36.7 115.5,35.6 112.1,34.9 C108.2,34 105.1,34.4 101.3,35.5 L101.1,35.5 C100.7,36 100.3,36.5 99.9,37 C105,34.4 112.2,37.3 117.2,38.5 C121.6,39.5 125.4,39.8 129.7,38.1 C134.3,36.3 137.9,33.3 141.6,30.2 C141.8,30.1 142,30.3 141.9,30.5 C141,31.6 139.9,32.8 138.7,33.8 C143.1,40.1 141.7,47.2 136.9,52.9 C136.8,53 136.8,52.9 136.8,52.8 C138.3,49.8 140.2,46.9 140.6,43.4 C141,40 140,37 138.1,34.3 C136.8,35.4 135.3,36.5 133.7,37.4 C136,39.5 135.5,43.7 134.6,46.2 C133.5,49.4 131.7,52.9 128.4,54.4 C128.3,54.4 128.3,54.3 128.3,54.3 C130.9,52.5 132.9,49.5 133.8,46.5 C134.8,43.2 134.7,40.6 133.1,37.7 C131,38.8 128.8,39.7 126.6,40.1 C128.2,41.3 126.7,44.8 126,46.1 C124.5,48.6 122.4,51.2 119.6,52.1 C119.4,52.1 119.4,51.9 119.5,51.8 C121.7,50.6 123.6,48.5 124.9,46.5 C125.6,45.4 126.3,44.2 126.5,42.9 C126.6,41.9 126.2,41.2 126.1,40.3 C124.3,40.6 122.4,40.7 120.6,40.4 C120.3,40.3 120,40.3 119.7,40.2 C119.9,42.8 116.8,45.9 114.4,46.4 C114.3,46.4 114.2,46.3 114.3,46.2 C116.1,44.7 119.3,42.7 118.9,40 C116.8,39.6 114.8,39 112.7,38.5 C113,39.8 110.8,41.4 109.9,41.7 C109.7,41.8 109.5,41.5 109.7,41.4 C110.4,40.7 111.8,39.9 111.9,38.8 L111.9,38.4 C111.2,38.2 110.6,38.1 109.9,38 C106.9,37.4 103.4,36.8 100.6,38 C103.4,38.7 105.8,39.9 108,41.9 C111,44.7 113,48.4 116,51.1 C121.9,56.2 131.7,57 138.8,53.3 L138.8,53.3 Z" id="Shape" sketch:type="MSShapeGroup"></path>
            </g>
        </g>
    </g>
</svg>
